<svg version="1.1" id="Layer_2" xmlns="http://www.w3.org/2000/svg" xmlns:xlink="http://www.w3.org/1999/xlink" x="0px" y="0px"
     width="60px" height="80px" viewBox="0 0 47.333 101.667" enable-background="new 0 0 47.333 101.667"
     xml:space="preserve">
     <style type="text/css"> .st0{fill:%23E58E1A;} .st1{fill:%23FCB040;} .st2{fill:%2345525B;} .st3{fill:%23050E22;} .st4{fill:%23314349;} .st5{fill:%23F9BB42;} .st6{stroke;:%23FBB03B;} .st7{stroke;:%233b6077;} .st8{stroke;:%233b6077;}   .st9{fill:%23F2A339;} .st10{fill:%23F7931E;} .st11{fill:%234F6671;}      </style>
<path class="st0" d="M42.667,27.849c0,1.096-0.434,2.484-1.602,2.484H6.911c-1.169,0-2.244-1.388-2.244-2.484V14.818
    c0-1.096,1.076-1.484,2.244-1.484h34.153c1.169,0,1.602,0.388,1.602,1.484V27.849z"></path>
<path class="st0" d="M42.667,93.849c0,1.096-0.438,2.484-1.617,2.484H6.588c-1.179,0-1.921-1.388-1.921-2.484V80.818
    c0-1.096,0.742-1.484,1.921-1.484H41.05c1.179,0,1.617,0.388,1.617,1.484V93.849z"></path>
<path class="st1" d="M41.667,96.383c0,1.009-0.919,1.95-2.007,1.95H7.33c-1.088,0-1.663-0.941-1.663-1.95V24.16
    c0-1.009,0.575-1.827,1.663-1.827h32.33c1.088,0,2.007,0.818,2.007,1.827V96.383z"></path>
<path class="st9 st10" stroke-miterlimit="10" d="M23.062,15.586c6.86,0,13.104,2.407,16.104,5.972V10.077
    c0-0.6,0.151-1.13-0.226-1.491c-1.777-4.399-7.782-5.348-15.185-5.348c-7.403,0-13.898,0.949-15.675,5.348
    c-0.377,0.361-0.914,0.891-0.914,1.491v11.261C11.167,17.896,16.346,15.586,23.062,15.586z"></path>
<path class="st2" d="M23.073,24.249c6.134,0,11.593,2.152,14.593,5.34V19.323c0-0.536-0.422-1.011-0.759-1.333
    c-1.588-3.933-7.237-4.781-13.855-4.781c-6.619,0-12.203,0.848-13.791,4.781c-0.337,0.323-0.594,0.797-0.594,1.333v10.069
    C11.667,26.313,17.068,24.249,23.073,24.249z"></path>
<path class="st3" d="M9.348,25.917L4.34,27.635l-0.65,0.223c-0.359,0.123-0.55,0.514-0.427,0.873l0.223,0.65
    c0.123,0.359,0.494,0.493,0.853,0.37l0.65-0.223c0.359-0.123,0.325-1.169,0.325-1.169l4.357-1.495
    c0.359-0.123,0.61-0.337,0.487-0.696C10.036,25.808,9.706,25.794,9.348,25.917z"></path>
<path class="st3" d="M38.07,25.917l5.007,1.718l0.65,0.223c0.359,0.123,0.55,0.514,0.427,0.873l-0.223,0.65
    c-0.123,0.359-0.494,0.493-0.853,0.37l-0.65-0.223c-0.359-0.123-0.325-1.169-0.325-1.169l-4.357-1.495
    c-0.359-0.123-0.61-0.337-0.487-0.696C37.381,25.808,37.711,25.794,38.07,25.917z"></path>
<path class="st2" d="M37.667,28.333c0,1.105-1.055,2-2.189,2H10.829c-1.134,0-2.162-0.895-2.162-2v-3c0-1.105,1.028-2,2.162-2
    h24.649c1.134,0,2.189,0.895,2.189,2V28.333z"></path>
<path class="st4" d="M27.135,17c3.704,0,7.209,0.677,10.101,1.831c-0.107-0.33-0.271-0.623-0.5-0.841
    c-1.588-3.933-7.151-4.781-13.77-4.781s-12.16,0.848-13.748,4.781c-0.337,0.323-0.551,0.797-0.551,1.333v7.688
    C9.667,21.373,17.676,17,27.135,17z"></path>
<path class="st5 st6"  stroke-miterlimit="10" d="M23.015,15.586c5.949,0,11.548,0.836,14.714,4.402l-1.433-9.911
    c0-0.6-0.493-1.13-0.82-1.491c-1.541-4.399-6.006-5.348-12.426-5.348c-6.42,0-10.899,0.949-12.44,5.348
    c-0.327,0.361-0.694,0.891-0.694,1.491L8.86,19.552C12.026,16.11,17.19,15.586,23.015,15.586z"></path>
 <g>    <g>        <path class="st7" d="M38.875,55.333c-0.115,0-0.208-0.437-0.208-0.873V32.622c0-0.436,0.093-0.289,0.208-0.289h1.25 c0.115,0,0.542-0.147,0.542,0.289v62.838c0,0.436-0.427,0.873-0.542,0.873H38.875z"></path>
   </g></g><g> <g>
       <path class="st11" d="M6.875,55.333c-0.115,0-0.208-0.437-0.208-0.873V32.622c0-0.436,0.093-0.289,0.208-0.289h1.25
            c0.115,0,0.542-0.147,0.542,0.289v62.838c0,0.436-0.427,0.873-0.542,0.873H6.875z"></path>
   </g></g>
<text transform='rotate(-90)' style="text-anchor:end;" x="-36" y="28" class="st7 st8" font-size="15" font-weight="semi-bold" font-family="arial">BIADJO</text>
</svg>
